<svg width="16" height="16" viewBox="0 0 16 16" fill="none" xmlns="http://www.w3.org/2000/svg">
<g clip-path="url(#clip0_814_2)">
<path d="M13.2787 1.94923C13.2767 1.94736 13.2745 1.94611 13.2725 1.94423C10.7582 -0.214144 7.20599 -0.597144 4.26636 0.903981C1.32874 2.40423 -0.343637 5.74986 0.0594884 8.99236C0.340988 11.2582 1.60436 13.2451 3.40899 14.5217C3.40899 14.5217 8.38361 10.0796 9.70461 8.50323C10.9436 7.02361 13.6489 2.29848 13.6489 2.29848C13.5292 2.17815 13.4058 2.06171 13.2786 1.94936L13.2787 1.94923Z" fill="#E74A99"/>
<path d="M3.40918 14.522C4.25204 15.1192 5.20108 15.5503 6.20543 15.7921C9.39143 16.555 12.8267 15.1696 14.6492 12.4688C16.7973 9.2847 16.3249 4.98408 13.6491 2.29883L8.55555 8.37895L3.40918 14.5218V14.522Z" fill="#27AAE1"/>
<path d="M8.25621 5.99325C8.25621 5.99325 7.49371 4.325 5.90671 4.70463C4.31983 5.0845 1.00558 8.32563 8.00733 12.358H8.00171C15.0033 8.3255 11.6895 5.08463 10.1025 4.70463C8.51533 4.32513 7.75296 5.99325 7.75296 5.99325H8.25621Z" fill="white"/>
</g>
<defs>
<clipPath id="clip0_814_2">
<rect width="16" height="16" fill="white"/>
</clipPath>
</defs>
</svg>
